<svg width="175" height="220" viewBox="0 0 175 220" fill="none" xmlns="http://www.w3.org/2000/svg">
<g filter="url(#filter0_d_39_69)">
<rect x="24" y="30" width="120.536" height="166.339" rx="5" fill="white"/>
<rect x="24.4" y="30.4" width="119.736" height="165.539" rx="4.6" stroke="#FFCFF0" stroke-width="0.8"/>
</g>
<line x1="40.875" y1="50.041" x2="131.285" y2="50.041" stroke="#BEBBBB" stroke-width="0.9"/>
<line x1="40.875" y1="68.1214" x2="131.285" y2="68.1214" stroke="#BEBBBB" stroke-width="0.9"/>
<line x1="40.875" y1="158.523" x2="131.285" y2="158.523" stroke="#BEBBBB" stroke-width="0.9"/>
<line x1="40.875" y1="176.604" x2="131.285" y2="176.604" stroke="#BEBBBB" stroke-width="0.9"/>
<g filter="url(#filter1_d_39_69)">
<ellipse cx="85.5026" cy="113.654" rx="25.6995" ry="25.6995" fill="#FF9DDF"/>
</g>
<circle cx="86.016" cy="113.24" r="18.096" fill="white"/>
<rect x="79.6994" y="82.1517" width="10.7772" height="10.7772" rx="4" fill="#FF9DDF"/>
<rect x="79.6994" y="133.551" width="10.7772" height="10.7772" rx="4" fill="#FF9DDF"/>
<rect x="103.374" y="86.9547" width="10.7772" height="10.7772" rx="4" transform="rotate(46 103.374 86.9547)" fill="#FF9DDF"/>
<rect x="65.0685" y="87.9547" width="10.7772" height="10.7772" rx="4" transform="rotate(46 65.0685 87.9547)" fill="#FF9DDF"/>
<rect x="102.242" y="142.16" width="10.7772" height="10.7772" rx="4" transform="rotate(-135 102.242 142.16)" fill="#FF9DDF"/>
<rect x="67.4237" y="142.16" width="10.7772" height="10.7772" rx="4" transform="rotate(-135 67.4237 142.16)" fill="#FF9DDF"/>
<rect x="106.228" y="120.286" width="10.7772" height="10.7772" rx="4" transform="rotate(-90 106.228 120.286)" fill="#FF9DDF"/>
<rect x="54" y="120.286" width="10.7772" height="10.7772" rx="4" transform="rotate(-90 54 120.286)" fill="#FF9DDF"/>
<circle cx="86.0162" cy="113.24" r="15.312" fill="#FFACCD"/>
<rect x="79.7625" y="111.732" width="8.78042" height="4.17601" rx="2" transform="rotate(42 79.7625 111.732)" fill="white"/>
<rect x="95.2575" y="109.233" width="16.5701" height="4.17601" rx="2" transform="rotate(135 95.2575 109.233)" fill="white"/>
<defs>
<filter id="filter0_d_39_69" x="0.4" y="0.4" width="173.736" height="219.539" filterUnits="userSpaceOnUse" color-interpolation-filters="sRGB">
<feFlood flood-opacity="0" result="BackgroundImageFix"/>
<feColorMatrix in="SourceAlpha" type="matrix" values="0 0 0 0 0 0 0 0 0 0 0 0 0 0 0 0 0 0 127 0" result="hardAlpha"/>
<feOffset dx="3" dy="-3"/>
<feGaussianBlur stdDeviation="13.3"/>
<feComposite in2="hardAlpha" operator="out"/>
<feColorMatrix type="matrix" values="0 0 0 0 0.6825 0 0 0 0 0.548275 0 0 0 0 0.548275 0 0 0 0.15 0"/>
<feBlend mode="normal" in2="BackgroundImageFix" result="effect1_dropShadow_39_69"/>
<feBlend mode="normal" in="SourceGraphic" in2="effect1_dropShadow_39_69" result="shape"/>
</filter>
<filter id="filter1_d_39_69" x="33.3032" y="65.4547" width="104.399" height="104.399" filterUnits="userSpaceOnUse" color-interpolation-filters="sRGB">
<feFlood flood-opacity="0" result="BackgroundImageFix"/>
<feColorMatrix in="SourceAlpha" type="matrix" values="0 0 0 0 0 0 0 0 0 0 0 0 0 0 0 0 0 0 127 0" result="hardAlpha"/>
<feOffset dy="4"/>
<feGaussianBlur stdDeviation="13.25"/>
<feComposite in2="hardAlpha" operator="out"/>
<feColorMatrix type="matrix" values="0 0 0 0 0 0 0 0 0 0 0 0 0 0 0 0 0 0 0.12 0"/>
<feBlend mode="normal" in2="BackgroundImageFix" result="effect1_dropShadow_39_69"/>
<feBlend mode="normal" in="SourceGraphic" in2="effect1_dropShadow_39_69" result="shape"/>
</filter>
</defs>
</svg>
