<svg width="188" height="184" viewBox="0 0 188 184" fill="none" xmlns="http://www.w3.org/2000/svg">
<g clip-path="url(#clip0_90_146)" filter="url(#filter0_d_90_146)">
<path d="M147.602 57.2543L97.4209 22.7118C95.3404 21.28 92.6591 21.28 90.5791 22.7118L40.398 57.2543C38.6191 58.4791 37.5464 60.5715 37.5464 62.8163V147.727C37.5464 151.392 40.3549 154.363 43.8192 154.363H144.181C147.646 154.363 150.454 151.392 150.454 147.727V62.8166C150.454 60.5715 149.381 58.4785 147.602 57.2543Z" fill="#D5F4FA"/>
<path d="M147.091 57.1055L96.9099 22.5629C95.8698 21.8472 94.6793 21.4888 93.4888 21.4888V154.214H143.67C147.134 154.214 149.943 151.243 149.943 147.578V62.6677C149.943 60.4227 148.87 58.3297 147.091 57.1055Z" fill="#C0FCFF"/>
<path d="M156.721 78.0891C155.548 78.0891 154.362 77.7415 153.306 77.0141L94.0004 36.1907L34.6946 77.0147C31.792 79.0136 27.9054 78.1442 26.0157 75.0716C24.1263 71.9993 24.9489 67.8885 27.8523 65.8896L90.5789 22.7108C92.6594 21.2797 95.3407 21.2797 97.4207 22.7108L160.147 65.8896C163.05 67.8885 163.873 71.9993 161.984 75.0716C160.782 77.0255 158.772 78.0891 156.721 78.0891Z" fill="#5E4EEB"/>
<path d="M156.727 154.363H31.274C27.8097 154.363 25.0012 151.392 25.0012 147.727C25.0012 144.061 27.8097 141.09 31.274 141.09H156.727C160.191 141.09 163 144.061 163 147.727C163 151.392 160.191 154.363 156.727 154.363Z" fill="#B66D38"/>
<path d="M156.721 78.0888C158.772 78.0888 160.782 77.0257 161.984 75.0716C163.874 71.9993 163.051 67.8885 160.148 65.8896L97.4214 22.7108C96.3813 21.9951 95.1908 21.6372 94.0002 21.6372V36.191L153.306 77.0143C154.362 77.7415 155.548 78.0888 156.721 78.0888Z" fill="#5229CA"/>
<path d="M156.727 141.091H94.0002V154.363H156.727C160.191 154.363 162.999 151.392 162.999 147.727C162.999 144.061 160.191 141.091 156.727 141.091Z" fill="#AA3827"/>
<path d="M103.345 72.5371C100.069 72.5371 96.8241 73.5072 94.0002 75.2549C91.1758 73.5078 87.9304 72.5371 84.6545 72.5371C74.7372 72.5371 66.9685 80.7559 66.9685 91.2484C66.9685 102.902 76.3207 111.582 87.1501 121.633C88.0388 122.458 88.939 123.294 89.8451 124.141C91.0316 125.252 92.5159 125.807 94.0005 125.807C95.4851 125.807 96.9696 125.251 98.1564 124.141C109.92 113.134 121.031 102.738 121.031 91.2484C121.031 80.7564 113.263 72.5371 103.345 72.5371Z" fill="#5E4EEB"/>
<path d="M103.345 72.5371C100.069 72.5371 96.8242 73.5072 94.0003 75.2549C93.9998 75.2549 93.9998 75.2549 93.9998 75.2549V125.807H94.0006C95.4851 125.807 96.9697 125.251 98.1564 124.141C109.92 113.134 121.031 102.738 121.031 91.2484C121.031 80.7564 113.263 72.5371 103.345 72.5371Z" fill="#5229CA"/>
</g>
<defs>
<filter id="filter0_d_90_146" x="0" y="-6" width="188" height="196" filterUnits="userSpaceOnUse" color-interpolation-filters="sRGB">
<feFlood flood-opacity="0" result="BackgroundImageFix"/>
<feColorMatrix in="SourceAlpha" type="matrix" values="0 0 0 0 0 0 0 0 0 0 0 0 0 0 0 0 0 0 127 0" result="hardAlpha"/>
<feOffset dy="4"/>
<feGaussianBlur stdDeviation="12.5"/>
<feColorMatrix type="matrix" values="0 0 0 0 0.286384 0 0 0 0 0.236358 0 0 0 0 0.836667 0 0 0 0.27 0"/>
<feBlend mode="normal" in2="BackgroundImageFix" result="effect1_dropShadow_90_146"/>
<feBlend mode="normal" in="SourceGraphic" in2="effect1_dropShadow_90_146" result="shape"/>
</filter>
<clipPath id="clip0_90_146">
<rect width="138" height="146" fill="white" transform="translate(25 15)"/>
</clipPath>
</defs>
</svg>
