<svg width="49" height="44" viewBox="0 0 49 44" fill="none" xmlns="http://www.w3.org/2000/svg">
<path d="M42.9949 12.2483L25.3146 0.953892C24.5816 0.485747 23.6369 0.485747 22.904 0.953892L5.22371 12.2483C4.59695 12.6488 4.21899 13.3329 4.21899 14.0669V41.8301C4.21899 43.0285 5.20851 44 6.42908 44H41.7897C43.0103 44 43.9998 43.0285 43.9998 41.8301V14.067C43.9998 13.3329 43.6217 12.6486 42.9949 12.2483Z" fill="#D5F4FA"/>
<path d="M42.423 11.8074L25.2785 0.356103C24.9231 0.118827 24.5164 0 24.1096 0V44H41.2542C42.4378 44 43.3973 43.015 43.3973 41.8V13.6513C43.3975 12.907 43.0308 12.2132 42.423 11.8074Z" fill="#C0FCFF"/>
<path d="M46.0254 18.0821C45.6155 18.0821 45.2011 17.9707 44.832 17.7377L24.1098 4.66154L3.38743 17.7379C2.37323 18.3782 1.01518 18.0997 0.354896 17.1155C-0.305293 16.1314 -0.0178609 14.8147 0.996626 14.1744L22.9143 0.343792C23.6413 -0.114635 24.5782 -0.114635 25.3049 0.343792L47.2226 14.1744C48.237 14.8147 48.5245 16.1314 47.8643 17.1155C47.4445 17.7414 46.742 18.0821 46.0254 18.0821Z" fill="#8CB6FF"/>
<path d="M46.0274 44.0002H2.19182C0.981343 44.0002 0 43.0557 0 41.8906C0 40.7255 0.981343 39.781 2.19182 39.781H46.0274C47.2378 39.781 48.2192 40.7255 48.2192 41.8906C48.2192 43.0557 47.2378 44.0002 46.0274 44.0002Z" fill="#DFC593"/>
<path d="M45.9155 18.0822C46.6321 18.0822 47.3346 17.7417 47.7547 17.1157C48.4149 16.1316 48.1274 14.8149 47.113 14.1746L25.1954 0.343891C24.832 0.114631 24.416 0 24 0V4.66176L44.7222 17.738C45.0912 17.9709 45.5056 18.0822 45.9155 18.0822Z" fill="#9DA0FE"/>
<path d="M46.0274 39.781H24.1096V44.0002H46.0274C47.2379 44.0002 48.2192 43.0556 48.2192 41.8906C48.2192 40.7254 47.2379 39.781 46.0274 39.781Z" fill="#97A96E"/>
<path d="M27.4437 16.8767C26.275 16.8767 25.1173 17.206 24.1098 17.7993C23.1022 17.2062 21.9443 16.8767 20.7756 16.8767C17.2374 16.8767 14.4658 19.6665 14.4658 23.2282C14.4658 27.1839 17.8023 30.1304 21.6659 33.5423C21.983 33.8222 22.3041 34.1059 22.6274 34.3936C23.0507 34.7705 23.5803 34.9589 24.1099 34.9589C24.6395 34.9589 25.1692 34.7704 25.5926 34.3936C29.7894 30.6573 33.7535 27.1282 33.7535 23.2282C33.7535 19.6667 30.982 16.8767 27.4437 16.8767Z" fill="#8CB6FF"/>
<path d="M27.4437 16.8767C26.275 16.8767 25.1173 17.206 24.1098 17.7993L24.1096 34.9589C24.6393 34.9589 25.1692 34.7704 25.5926 34.3936C29.7894 30.6573 33.7535 27.1282 33.7535 23.2282C33.7535 19.6667 30.982 16.8767 27.4437 16.8767Z" fill="#9DA0FE"/>
</svg>
